<svg xmlns="http://www.w3.org/2000/svg" viewBox="0 0 760 210" role="img" aria-labelledby="title desc">
  <title id="title">Daily pixel bear mood widget: Focused</title>
  <desc id="desc">A GitHub profile pixel bear mood widget showing the current mood as Focused.</desc>
  <defs>
    <filter id="glow" x="-20%" y="-20%" width="140%" height="140%">
      <feGaussianBlur stdDeviation="3" result="blur"/>
      <feMerge>
        <feMergeNode in="blur"/>
        <feMergeNode in="SourceGraphic"/>
      </feMerge>
    </filter>
    <style>
      .panel{fill:#0d1117;stroke:#30363d;stroke-width:2}
      .screen{fill:#010409;stroke:#58a6ff;stroke-width:2}
      .txt{font-family:Consolas,Monaco,monospace;fill:#c9d1d9}
      .muted{fill:#8b949e}
      .accent{fill:#58a6ff}
      .accent-stroke{stroke:#58a6ff}
      .bear{fill:#a66a3f}
      .bear-dark{fill:#7a4328}
      .ear{fill:#5b2f1d}
      .muzzle{fill:#e8c7a5}
      .nose,.ink{fill:#1f2328}
      .fur-hi{fill:#c88955;opacity:.7}
      .fur-shadow{fill:#5f331f;opacity:.62}
      .blush{fill:#ff9fc5;opacity:.72}
      .heart{fill:#ff7bba}
      .gold{fill:#ffcc66}
      .green{fill:#39d353}
      .cyan{fill:#58a6ff}
      .bug{fill:#f97316}
      .battery{fill:#8b949e}
      .mini{font-family:Consolas,Monaco,monospace;font-size:17px;fill:#58a6ff}
      .stroke{fill:none;stroke-linecap:round;stroke-linejoin:round;stroke-width:4}
      .float{animation:float 3s ease-in-out infinite}
      .spark{animation:spark 1.8s steps(1,end) infinite}
      .cursor{animation:cursor 1s steps(1,end) infinite}
      @keyframes float{0%,100%{transform:translateY(0)}50%{transform:translateY(-4px)}}
      @keyframes spark{0%,100%{opacity:.28}50%{opacity:1}}
      @keyframes cursor{0%,48%{opacity:1}49%,100%{opacity:0}}
    </style>
  </defs>

  <rect x="8" y="8" width="744" height="194" rx="18" class="panel"/>
  <rect x="26" y="28" width="708" height="154" rx="14" class="screen" filter="url(#glow)"/>

  <g class="float">
    <rect x="58" y="28" width="214" height="154" rx="14" fill="#0d1117" stroke="#58a6ff" stroke-width="2" filter="url(#glow)"/>
    
    <g transform="translate(54 30)" shape-rendering="crispEdges">
      <rect x="42" y="20" width="46" height="28" class="bear"/>
      <rect x="118" y="20" width="46" height="28" class="bear"/>
      <rect x="50" y="28" width="28" height="20" class="ear"/>
      <rect x="128" y="28" width="28" height="20" class="ear"/>
      <rect x="38" y="42" width="132" height="96" class="bear"/>
      <rect x="30" y="62" width="20" height="60" class="bear-dark"/>
      <rect x="158" y="62" width="20" height="60" class="bear-dark"/>
      <rect x="58" y="130" width="92" height="24" class="bear-dark"/>
      <rect x="76" y="96" width="60" height="40" class="muzzle"/>
      <rect x="100" y="97" width="14" height="10" class="nose"/>
      
        <path d="M72 72h34v6H72zM116 72h34v6h-34z" class="ink"/>
        <path d="M83 84h10v10H83zM127 84h10v10h-10z" class="ink"/>
        <path d="M92 111h38v7H92z" class="ink"/>
        <rect x="146" y="120" width="36" height="22" class="screen"/>
        <rect x="152" y="126" width="12" height="4" class="green"/>
        <rect x="152" y="134" width="22" height="4" class="cyan"/>
        
      <rect x="38" y="42" width="132" height="6" class="fur-hi"/>
      <rect x="52" y="54" width="18" height="6" class="fur-hi"/>
      <rect x="136" y="54" width="18" height="6" class="fur-shadow"/>
    </g>
    
  </g>

  <g transform="translate(330 60)">
    <text class="txt muted" x="0" y="0" font-size="14">DAILY BEAR MOOD</text>
    <text class="txt" x="0" y="42" font-size="34" font-weight="700">Focused</text>
    <text class="txt muted" x="0" y="78" font-size="16">Deep work mode is online.</text>
    <text class="txt" x="0" y="118" font-size="15">&gt; generated by GitHub Actions<tspan class="cursor">_</tspan></text>
  </g>

  <path class="accent-stroke spark" d="M666 48h36M684 42v12" fill="none" stroke-width="2" stroke-linecap="round"/>
  <path class="accent-stroke" d="M662 136h32" fill="none" stroke-width="2" stroke-linecap="round" opacity=".6"/>
  <path d="M54 170h150M216 170h24M574 170h88" class="stroke accent-stroke" opacity=".5"/>
</svg>
