<svg xmlns="http://www.w3.org/2000/svg" viewBox="0 0 760 225" role="img" aria-labelledby="title desc">
  <title id="title">Bear mood: Excited</title>
  <desc id="desc">A privacy-friendly Windows XP style pixel bear widget showing the current mood as Excited.</desc>
  <defs>
    <linearGradient id="titlebar" x1="0" y1="0" x2="0" y2="1"><stop stop-color="#3f8cf3"/><stop offset=".5" stop-color="#0869e8"/><stop offset="1" stop-color="#0054c8"/></linearGradient>
    <filter id="shadow" x="-20%" y="-30%" width="140%" height="170%"><feDropShadow dx="0" dy="6" stdDeviation="5" flood-color="#123765" flood-opacity=".38"/></filter>
    <style>
      .ui{font-family:Tahoma,"MS Sans Serif",Arial,sans-serif;fill:#1f1f1f}.white{fill:#fff}.blue{fill:#174ea6}.muted{fill:#66758c}
      .crisp{shape-rendering:crispEdges}.fur{fill:#a9683d}.fur-dark{fill:#754127}.ink{fill:#202020}.mini{font-family:"Courier New",monospace;font-size:12px;fill:#174ea6}
      .bob{animation:bob 3.5s ease-in-out infinite}.blink{animation:blink 1s steps(1,end) infinite}
      @keyframes bob{0%,100%{transform:translate(73px,54px)}50%{transform:translate(73px,50px)}}@keyframes blink{0%,48%{opacity:1}49%,100%{opacity:0}}
      @media (prefers-reduced-motion:reduce){.bob,.blink{animation:none}}
    </style>
  </defs>
  <rect width="760" height="225" rx="11" fill="#d6e6ff"/>
  <g filter="url(#shadow)">
    <rect x="17" y="15" width="726" height="194" rx="8" fill="#0a5cd4"/>
    <rect x="21" y="19" width="718" height="28" rx="6" fill="url(#titlebar)"/>
    <rect x="31" y="25" width="14" height="14" fill="#fff"/><path d="M34 28h8v8h-8z" fill="#5bad3b"/>
    <text class="ui white" x="51" y="38" font-size="13" font-weight="700">Bear Mood - Windows Messenger</text>
    <rect x="667" y="24" width="19" height="18" rx="3" fill="#1f75e5" stroke="#fff"/><path d="M672 36h9" stroke="#fff" stroke-width="2"/>
    <rect x="690" y="24" width="19" height="18" rx="3" fill="#1f75e5" stroke="#fff"/><rect x="695" y="29" width="9" height="8" fill="none" stroke="#fff"/>
    <rect x="713" y="24" width="19" height="18" rx="3" fill="#e8563f" stroke="#fff"/><path d="M718 29l9 8m0-8l-9 8" stroke="#fff" stroke-width="2"/>
    <rect x="21" y="47" width="718" height="158" fill="#ece9d8"/>
    <rect x="37" y="61" width="213" height="126" rx="5" fill="#fff" stroke="#7f9db9"/>

      <g transform="translate(73 54)" class="crisp bob">
        <rect x="25" y="13" width="30" height="25" class="fur-dark"/>
        <rect x="77" y="13" width="30" height="25" class="fur-dark"/>
        <rect x="18" y="28" width="96" height="77" class="fur"/>
        <rect x="10" y="47" width="17" height="46" class="fur-dark"/>
        <rect x="105" y="47" width="17" height="46" class="fur-dark"/>
        <rect x="34" y="91" width="65" height="25" class="fur-dark"/>
        <rect x="44" y="67" width="48" height="33" fill="#f8dcb7"/>
        <rect x="62" y="67" width="13" height="9" class="ink"/>
        <rect x="47" y="55" width="8" height="10" class="ink"/><rect x="79" y="55" width="8" height="10" class="ink"/><rect x="55" y="76" width="27" height="17" class="ink"/><rect x="62" y="82" width="13" height="11" fill="#f8dcb7"/><path d="M104 17l5 10 12 2-9 8 3 12-11-6-10 6 2-12-8-8 11-2z" fill="#f5c542"/>
      </g>

    <text class="ui muted" x="283" y="85" font-size="12">TODAY'S STATUS</text>
    <text class="ui blue" x="283" y="124" font-size="31" font-weight="700">Excited</text>
    <text class="ui" x="283" y="153" font-size="14">A new idea just appeared on the desktop.</text>
    <text class="ui muted" x="283" y="181" font-size="11">updated quietly by GitHub Actions<tspan class="blink">_</tspan></text>
    <rect x="651" y="167" width="69" height="25" fill="#ece9d8" stroke="#7f7a6e"/>
    <rect x="654" y="170" width="63" height="19" fill="none" stroke="#fff"/>
    <text class="ui" x="676" y="184" font-size="11">OK</text>
  </g>
</svg>
